<svg width="52" height="49" viewBox="0 0 52 49" fill="none" xmlns="http://www.w3.org/2000/svg">
<g clip-path="url(#clip0_499_1345)">
<path d="M36 48.2441C44.8366 48.2441 52 41.0807 52 32.2441C52 23.4076 44.8366 16.2441 36 16.2441C27.1634 16.2441 20 23.4076 20 32.2441C20 41.0807 27.1634 48.2441 36 48.2441Z" fill="#0BA8EC"/>
</g>
<g clip-path="url(#clip1_499_1345)">
<path d="M22.7856 0.244141H23.125C23.3425 0.301328 23.5534 0.397891 23.71 0.563828C24.7581 1.61008 25.8062 2.65727 26.8516 3.70633C27.2181 4.03445 27.2594 4.64852 26.9266 5.01508C26.5984 5.41164 25.9384 5.44539 25.5766 5.07695C25.0244 4.53977 24.4881 3.9857 23.9387 3.4457C23.9284 5.04133 23.9481 6.63789 23.9294 8.23352C26.7391 9.9557 29.5741 11.6395 32.3931 13.3476C33.5387 14.0263 34.6666 14.7351 35.8234 15.3951C36.7159 14.8279 37.6328 14.3001 38.5347 13.747C38.3416 13.0129 38.3416 12.2207 38.6041 11.5045C38.9209 10.612 39.5894 9.84602 40.4453 9.43539C41.4325 8.94602 42.6437 8.93289 43.6347 9.42039C44.5628 9.85727 45.2856 10.7048 45.5669 11.692C45.8491 12.6295 45.7262 13.6766 45.2378 14.5251C44.7156 15.4635 43.7566 16.1413 42.6981 16.3213C41.5553 16.5463 40.345 16.1488 39.5078 15.352C38.5844 15.9098 37.6591 16.4638 36.7356 17.0216C36.73 21.6895 36.7394 26.3573 36.7319 31.0251C37.6534 31.5885 38.5797 32.1445 39.5069 32.7004C40.0309 32.2232 40.6731 31.8623 41.3762 31.7357C42.3587 31.5473 43.4172 31.7854 44.2225 32.3816C45.0109 32.9601 45.5519 33.8657 45.6822 34.8351C45.8172 35.7951 45.5462 36.8029 44.9528 37.5698C44.3838 38.3057 43.5269 38.8157 42.6044 38.9526C41.4156 39.1363 40.1509 38.691 39.3494 37.7929C38.5066 36.8769 38.1794 35.5195 38.5403 34.3251C37.6441 33.7495 36.7159 33.2216 35.8103 32.661C31.8437 35.0273 27.895 37.4235 23.9369 39.8038C23.9369 41.5513 23.935 43.2988 23.9378 45.0463C24.4881 44.5054 25.0244 43.9504 25.5775 43.4132C25.9403 43.0448 26.6003 43.0804 26.9275 43.4779C27.2584 43.8416 27.2181 44.452 26.8544 44.781C25.8278 45.8188 24.7909 46.8463 23.7616 47.8813C23.5769 48.0763 23.3266 48.1907 23.0659 48.2441H22.8475C22.6347 48.1954 22.4378 48.0895 22.2887 47.9301C21.2266 46.8632 20.1569 45.8038 19.0984 44.7341C18.7656 44.4013 18.7525 43.8173 19.0731 43.4723C19.4003 43.0785 20.0556 43.0495 20.4166 43.4123C20.9716 43.9504 21.5097 44.5063 22.0609 45.0482C22.0619 43.3007 22.0609 41.5523 22.0619 39.8038C18.1178 37.417 14.1587 35.0554 10.2194 32.661C9.2875 33.1982 8.36594 33.7551 7.45281 34.3241C7.8325 35.586 7.44812 37.0288 6.50406 37.9438C5.70438 38.7463 4.51375 39.1195 3.39719 38.9535C2.45125 38.8148 1.57375 38.2823 1.00469 37.5154C0.436563 36.757 0.183438 35.7716 0.315625 34.8341C0.446875 33.8366 1.01594 32.9076 1.84188 32.3338C2.66688 31.7507 3.74031 31.537 4.72656 31.7573C5.39031 31.897 5.99312 32.2466 6.49094 32.7013C7.41719 32.1445 8.34625 31.5932 9.26594 31.0251C9.26219 30.1063 9.26125 29.1857 9.265 28.267C9.24156 27.7738 9.66062 27.3116 10.1575 27.3041C10.6516 27.2676 11.1222 27.6876 11.1316 28.1845C11.1503 29.1341 11.1306 30.0848 11.14 31.0354C14.7812 33.2254 18.4197 35.4191 22.06 37.611C22.0628 33.3173 22.0609 29.0235 22.0609 24.7288C18.4216 22.5341 14.7784 20.3451 11.14 18.1495C11.1325 18.712 11.1484 29.2745 11.1334 29.836C11.1334 30.2335 10.8475 30.6057 10.465 30.7116C9.93531 30.8879 9.31469 30.4801 9.27344 29.9213C9.24719 28.9557 9.2725 17.9891 9.26219 17.0226C8.33875 16.4638 7.41344 15.907 6.48812 15.352C5.66031 16.146 4.45844 16.5388 3.325 16.326C2.27875 16.1573 1.32719 15.501 0.792813 14.586C0.25375 13.6907 0.13375 12.5591 0.4675 11.5691C0.749688 10.7038 1.37125 9.95758 2.17 9.5207C3.11031 8.98445 4.2925 8.91789 5.29375 9.32008C6.18625 9.66695 6.91844 10.387 7.29531 11.2645C7.63656 12.036 7.68344 12.9248 7.45469 13.7348C8.36687 14.3001 9.29031 14.8495 10.2147 15.396C14.1287 13.0241 18.0531 10.6682 21.9747 8.30758C22.1153 8.2382 22.0422 8.05258 22.0638 7.93164C22.0572 6.43633 22.0638 4.94008 22.0609 3.44477C21.5106 3.98477 20.9753 4.53883 20.4213 5.07508C20.0744 5.42477 19.4528 5.42008 19.1134 5.06195C18.7572 4.72352 18.7478 4.10383 19.0975 3.75695C20.1578 2.68914 21.2275 1.6307 22.2878 0.563828C22.4237 0.416641 22.5991 0.314453 22.7856 0.244141ZM12.0269 16.4882C15.6766 18.7054 19.3431 20.8954 22.9984 23.1051C26.6603 20.9048 30.3203 18.7007 33.9775 16.492C30.6316 14.4745 27.2856 12.457 23.9369 10.4441C23.9341 12.4513 23.9397 14.4585 23.935 16.4657C23.9584 16.972 23.5141 17.437 23.0059 17.4276C22.4922 17.4463 22.0356 16.9766 22.0628 16.4638C22.0581 14.4576 22.0628 12.4504 22.0609 10.4432C18.715 12.456 15.3719 14.4735 12.0269 16.4882ZM3.53781 10.9813C2.88156 11.1295 2.33406 11.6723 2.19813 12.3332C2.05188 12.9435 2.27031 13.6166 2.73344 14.0366C3.20406 14.4745 3.92219 14.6273 4.52781 14.4051C5.07719 14.2176 5.51594 13.7451 5.66125 13.1826C5.82437 12.606 5.66313 11.9545 5.25625 11.5148C4.83531 11.0432 4.15188 10.8351 3.53781 10.9813ZM41.7738 10.9588C41.2206 11.0423 40.7228 11.4041 40.4716 11.902C40.1491 12.5001 40.2231 13.2791 40.6431 13.8116C41.0481 14.3404 41.7634 14.6151 42.4178 14.4679C43.0019 14.3535 43.5091 13.9213 43.72 13.3645C43.9478 12.7991 43.8484 12.1213 43.4772 11.6404C43.0891 11.1257 42.4103 10.8491 41.7738 10.9588ZM23.9387 24.7288C23.9341 29.0226 23.9369 33.3163 23.9369 37.611C27.5781 35.4088 31.2391 33.2376 34.8662 31.0138C34.8494 26.7276 34.8634 22.4413 34.8587 18.1551C31.2166 20.3432 27.5819 22.5426 23.9387 24.7288ZM3.63344 33.5741C2.94438 33.6838 2.36031 34.237 2.20375 34.9148C2.05094 35.527 2.25813 36.2123 2.72313 36.6379C3.1525 37.041 3.78813 37.2145 4.36094 37.0663C4.96 36.9285 5.46344 36.4541 5.64156 35.8663C5.82719 35.2954 5.69219 34.6373 5.30312 34.1807C4.90469 33.7035 4.24563 33.4626 3.63344 33.5741ZM41.7841 33.5685C41.1175 33.6688 40.5259 34.1732 40.345 34.8276C40.1556 35.4304 40.3337 36.1213 40.7725 36.5723C41.2469 37.0757 42.0306 37.2585 42.6766 37.0054C43.2456 36.7973 43.6909 36.2835 43.8053 35.6873C43.9328 35.0976 43.7256 34.4563 43.2897 34.0429C42.8978 33.6613 42.3231 33.4832 41.7841 33.5685Z" fill="#1D1D1D"/>
</g>
<defs>
<clipPath id="clip0_499_1345">
<rect width="32" height="33" fill="white" transform="translate(20 16)"/>
</clipPath>
<clipPath id="clip1_499_1345">
<rect width="46" height="49" fill="white"/>
</clipPath>
</defs>
</svg>
