<svg width="54" height="48" viewBox="0 0 54 48" fill="none" xmlns="http://www.w3.org/2000/svg">
<g clip-path="url(#clip0_499_1333)">
<path d="M38 47.2441C46.8366 47.2441 54 40.0807 54 31.2441C54 22.4076 46.8366 15.2441 38 15.2441C29.1634 15.2441 22 22.4076 22 31.2441C22 40.0807 29.1634 47.2441 38 47.2441Z" fill="#0BA8EC"/>
</g>
<g clip-path="url(#clip1_499_1333)">
<path d="M24 31.5C28.1421 31.5 31.5 28.1421 31.5 24C31.5 19.8579 28.1421 16.5 24 16.5C19.8579 16.5 16.5 19.8579 16.5 24C16.5 28.1421 19.8579 31.5 24 31.5Z" stroke="black" stroke-width="2" stroke-linecap="round" stroke-linejoin="round"/>
<path d="M41.22 34.2825L24.72 43.3163C24.4992 43.4371 24.2516 43.5004 24 43.5004C23.7484 43.5004 23.5008 43.4371 23.28 43.3163L6.78 34.2825C6.5444 34.1536 6.34772 33.9638 6.21052 33.7329C6.07331 33.5021 6.00061 33.2386 6 32.97V15.0338C6.00061 14.7652 6.07331 14.5017 6.21052 14.2709C6.34772 14.04 6.5444 13.8502 6.78 13.7213L23.28 4.68752C23.5008 4.56673 23.7484 4.50342 24 4.50342C24.2516 4.50342 24.4992 4.56673 24.72 4.68752L41.22 13.7213C41.4556 13.8502 41.6523 14.04 41.7895 14.2709C41.9267 14.5017 41.9994 14.7652 42 15.0338V32.9663C42.0001 33.2355 41.9277 33.4997 41.7904 33.7313C41.6532 33.9629 41.4562 34.1533 41.22 34.2825Z" stroke="#1D1D1D" stroke-width="2" stroke-linecap="round" stroke-linejoin="round"/>
</g>
<defs>
<clipPath id="clip0_499_1333">
<rect width="32" height="33" fill="white" transform="translate(22 15)"/>
</clipPath>
<clipPath id="clip1_499_1333">
<rect width="48" height="48" fill="white"/>
</clipPath>
</defs>
</svg>
