<svg width="54" height="49" viewBox="0 0 54 49" fill="none" xmlns="http://www.w3.org/2000/svg">
<g clip-path="url(#clip0_543_375)">
<path d="M38 48.2441C46.8366 48.2441 54 41.0807 54 32.2441C54 23.4076 46.8366 16.2441 38 16.2441C29.1634 16.2441 22 23.4076 22 32.2441C22 41.0807 29.1634 48.2441 38 48.2441Z" fill="#0BA8EC"/>
</g>
<g clip-path="url(#clip1_543_375)">
<path d="M41.5519 0.244141H41.6962C41.8941 0.281641 42.0769 0.368828 42.2494 0.470078C44.0081 1.48914 45.7697 2.50352 47.5294 3.52164C47.7544 3.63602 47.9128 3.83945 47.9991 4.07383V10.8248C47.925 11.0732 47.7591 11.2813 47.5284 11.3995C45.8653 12.3641 44.1975 13.3185 42.5344 14.2832C42.2981 14.4145 42.0722 14.5766 41.8106 14.6535C41.5781 14.7182 41.3456 14.6198 41.1487 14.5045C39.4444 13.5201 37.7438 12.5301 36.0356 11.5523C35.8266 11.4266 35.5912 11.3226 35.4394 11.1238C35.2959 10.9354 35.3006 10.687 35.2969 10.462C35.3044 8.40133 35.2941 6.33977 35.3016 4.2782C35.2847 3.97445 35.4572 3.69039 35.7244 3.5507C37.3725 2.60102 39.0197 1.64758 40.6678 0.696953C40.9547 0.531953 41.2322 0.342578 41.5519 0.244141ZM37.5534 4.22195C38.9128 5.01977 40.2825 5.79883 41.6437 6.59383C43.0134 5.81383 44.3738 5.01695 45.7416 4.23602C44.3869 3.42602 43.0134 2.64414 41.6428 1.86133C40.2844 2.65633 38.9184 3.43914 37.5534 4.22195ZM36.7997 5.52602C36.7997 7.10383 36.7978 8.68164 36.8016 10.2595C38.1675 11.047 39.5297 11.841 40.9003 12.621C40.9012 11.0488 40.8947 9.4757 40.9031 7.90352C39.5456 7.09445 38.1656 6.32195 36.7997 5.52602ZM42.4022 7.88945C42.3956 9.4682 42.4003 11.047 42.4003 12.6266C43.7691 11.8429 45.1312 11.0488 46.4981 10.2623C46.4991 8.68445 46.5 7.1057 46.4981 5.52789C45.1322 6.31352 43.7709 7.10852 42.4022 7.88945Z" fill="#1D1D1D"/>
<path d="M27.0286 6.05354C26.9995 5.65042 27.3417 5.26604 27.7504 5.26792C29.0292 5.25667 30.3089 5.26417 31.5886 5.26417C32.0179 5.23229 32.4136 5.62323 32.377 6.05448C32.3648 6.45292 31.9926 6.78385 31.597 6.76135C30.5761 6.76323 29.5542 6.76511 28.5323 6.75948C28.5182 12.3367 28.5332 17.9139 28.5248 23.491C29.5467 23.4995 30.5695 23.4882 31.5914 23.4957C32.0048 23.4657 32.3901 23.8285 32.3779 24.2448C32.3882 24.6573 32.0076 25.0173 31.597 24.992C30.5732 24.9995 29.5486 24.9873 28.5248 24.9967C28.5314 30.5739 28.5211 36.1501 28.5304 41.7264C29.5804 41.7273 30.6304 41.7179 31.6804 41.7301C32.0817 41.7414 32.4145 42.1295 32.3761 42.5279C32.3564 42.9254 31.9804 43.2498 31.5848 43.2235C30.3079 43.2235 29.0311 43.231 27.7551 43.2198C27.3473 43.2226 27.0014 42.841 27.0286 42.4379C27.0248 36.6235 27.0286 30.8092 27.0267 24.9948C26.1389 24.9882 25.2511 25.0032 24.3642 24.9882C23.9761 24.9835 23.6414 24.6282 23.6526 24.242C23.6423 23.8576 23.977 23.5023 24.3632 23.4995C25.2511 23.4845 26.1389 23.4985 27.0267 23.4939C27.0276 17.6804 27.0248 11.867 27.0286 6.05354Z" fill="#1D1D1D"/>
<path d="M6.75281 14.2139C9.22594 13.1976 12.0788 13.1573 14.5828 14.091C17.0456 14.9967 19.1475 16.8342 20.3775 19.1507C21.5747 21.3726 21.9488 24.0201 21.42 26.4867C20.8753 29.1032 19.3163 31.4892 17.1413 33.0398C15.0516 34.5501 12.4078 35.2701 9.84094 35.0264C7.22156 34.7967 4.70719 33.5648 2.9175 31.6382C1.16719 29.7848 0.140625 27.2967 0 24.757V23.7351C0.0946875 22.2304 0.465938 20.7398 1.14844 19.3935C2.30531 17.062 4.33875 15.186 6.75281 14.2139ZM9.50813 15.0135C7.605 15.2835 5.79094 16.1592 4.4025 17.4895C2.95688 18.8573 1.97063 20.7004 1.63969 22.6626C1.23375 24.9454 1.73625 27.3689 3 29.3104C4.1175 31.0448 5.82844 32.3873 7.78031 33.0567C9.92344 33.8057 12.3413 33.7317 14.4319 32.8448C16.7109 31.896 18.5738 30.0023 19.4859 27.7082C20.2622 25.7882 20.3625 23.6067 19.7756 21.621C19.0969 19.2754 17.4516 17.2289 15.3047 16.0654C13.5525 15.1026 11.4872 14.7257 9.50813 15.0135Z" fill="#1D1D1D"/>
<path d="M41.2144 17.1663C41.4685 17.0003 41.8032 16.9881 42.0619 17.1513C43.8872 18.1994 45.7069 19.256 47.5304 20.306C47.7554 20.4194 47.9129 20.6228 48.001 20.8563V27.6081C47.9269 27.8556 47.7629 28.0647 47.5313 28.1819C45.7079 29.2319 43.8872 30.2894 42.0619 31.3366C41.8022 31.5016 41.4638 31.4856 41.2088 31.3206C39.3835 30.266 37.5554 29.2141 35.731 28.1575C35.4629 28.0169 35.2857 27.7338 35.3035 27.4272C35.2997 25.3038 35.2997 23.1803 35.3044 21.0578C35.2875 20.7541 35.4629 20.4728 35.7272 20.3331C37.5554 19.2766 39.3854 18.221 41.2144 17.1663ZM37.5572 21.0166C38.9222 21.8003 40.2854 22.5888 41.6475 23.3772C43.0172 22.5963 44.3775 21.7985 45.7472 21.0166C44.386 20.2169 43.0154 19.4322 41.6475 18.6447C40.2863 19.4406 38.9129 20.2131 37.5572 21.0166ZM36.8016 22.3103C36.8025 23.8891 36.7997 25.4678 36.8035 27.0466C38.1694 27.8331 39.5335 28.6253 40.9013 29.4091C40.9041 27.835 40.8966 26.261 40.905 24.6869C39.5438 23.8835 38.1685 23.1044 36.8016 22.3103ZM42.4097 24.6653C42.391 26.2469 42.4069 27.8285 42.4013 29.4091C43.7691 28.6235 45.1341 27.8331 46.501 27.0447C46.501 25.4669 46.501 23.8891 46.5 22.3113C45.136 23.0941 43.7785 23.891 42.4097 24.6653Z" fill="#1D1D1D"/>
<path d="M41.2139 33.9489C41.4661 33.7849 41.7998 33.7708 42.0567 33.933C43.882 34.9821 45.7055 36.0339 47.528 37.0877C47.753 37.2021 47.9123 37.4036 47.9995 37.638V44.3917C47.9217 44.6927 47.6845 44.8989 47.4183 45.0339C45.6717 46.0371 43.9298 47.0467 42.1861 48.0546C42.0342 48.1399 41.8711 48.2064 41.7014 48.2439H41.527C41.242 48.1371 40.9842 47.9767 40.7236 47.823C39.0408 46.8499 37.3533 45.8824 35.6742 44.9036C35.393 44.7499 35.2786 44.4227 35.2992 44.1171C35.303 42.0255 35.2955 39.933 35.302 37.8414C35.2645 37.4121 35.6292 37.1364 35.9733 36.9724C37.7236 35.9711 39.4655 34.9539 41.2139 33.9489ZM37.553 37.7908C38.9142 38.5877 40.2867 39.3639 41.647 40.1617C43.0167 39.3771 44.3827 38.5877 45.7486 37.7955C44.3827 37.0042 43.0186 36.2102 41.647 35.4302C40.2848 36.2224 38.9189 37.0071 37.553 37.7908ZM36.8002 39.0939C36.8002 40.6717 36.7992 42.2486 36.8011 43.8264C38.1661 44.6167 39.532 45.4042 40.8998 46.1899C40.9017 44.6149 40.897 43.0408 40.9017 41.4658C39.5395 40.6671 38.1689 39.8824 36.8002 39.0939ZM42.4064 41.4517C42.3923 43.0324 42.4027 44.6139 42.4008 46.1946C43.7677 45.408 45.1327 44.6177 46.4986 43.8302C46.5005 42.2514 46.4995 40.6727 46.4995 39.0939C45.1345 39.8796 43.777 40.6774 42.4064 41.4517Z" fill="#1D1D1D"/>
<path d="M10.917 17.1305C11.1692 16.9665 11.5029 16.9524 11.7598 17.1146C13.5851 18.1637 15.4086 19.2155 17.2311 20.2693C17.4561 20.3837 17.6154 20.5852 17.7026 20.8196V27.5733C17.6248 27.8743 17.3876 28.0805 17.1214 28.2155C15.3748 29.2187 13.6329 30.2283 11.8892 31.2362C11.7373 31.3215 11.5742 31.388 11.4045 31.4255H11.2301C10.9451 31.3187 10.6873 31.1583 10.4267 31.0046C8.74394 30.0315 7.05644 29.064 5.37734 28.0852C5.09614 27.9315 4.98174 27.6043 5.00234 27.2987C5.00614 25.2071 4.99864 23.1146 5.00514 21.023C4.96764 20.5937 5.33235 20.318 5.67645 20.154C7.42675 19.1527 9.16865 18.1355 10.917 17.1305ZM7.25615 20.9724C8.61735 21.7693 9.98984 22.5455 11.3501 23.3433C12.7198 22.5587 14.0858 21.7693 15.4517 20.9771C14.0858 20.1858 12.7217 19.3918 11.3501 18.6118C9.98794 19.404 8.62205 20.1887 7.25615 20.9724ZM6.50335 22.2755C6.50335 23.8533 6.50235 25.4302 6.50425 27.008C7.86925 27.7983 9.23514 28.5858 10.6029 29.3715C10.6048 27.7965 10.6001 26.2224 10.6048 24.6474C9.24264 23.8487 7.87205 23.064 6.50335 22.2755ZM12.1095 24.6333C12.0954 26.214 12.1058 27.7955 12.1039 29.3762C13.4708 28.5896 14.8358 27.7993 16.2017 27.0118C16.2036 25.433 16.2026 23.8543 16.2026 22.2755C14.8376 23.0612 13.4801 23.859 12.1095 24.6333Z" fill="#1D1D1D"/>
</g>
<defs>
<clipPath id="clip0_543_375">
<rect width="32" height="33" fill="white" transform="translate(22 16)"/>
</clipPath>
<clipPath id="clip1_543_375">
<rect width="48" height="49" fill="white"/>
</clipPath>
</defs>
</svg>
