<svg width="43" height="32" viewBox="0 0 43 32" fill="none" xmlns="http://www.w3.org/2000/svg">
<path d="M16.9922 32C25.8287 32 32.9922 24.8366 32.9922 16C32.9922 7.16344 25.8287 0 16.9922 0C8.15563 0 0.992188 7.16344 0.992188 16C0.992188 24.8366 8.15563 32 16.9922 32Z" fill="#0BA8EC"/>
<path d="M31.5 28V17C31.5017 15.4092 32.1343 13.884 33.2592 12.7592C34.384 11.6343 35.9092 11.0017 37.5 11C37.7652 11 38.0196 11.1054 38.2071 11.2929C38.3946 11.4804 38.5 11.7348 38.5 12C38.5 12.2652 38.3946 12.5196 38.2071 12.7071C38.0196 12.8946 37.7652 13 37.5 13C36.4391 13 35.4217 13.4214 34.6716 14.1716C33.9214 14.9217 33.5 15.9391 33.5 17V18H41C41.5304 18 42.0391 18.2107 42.4142 18.5858C42.7893 18.9609 43 19.4696 43 20V28C43 28.5304 42.7893 29.0391 42.4142 29.4142C42.0391 29.7893 41.5304 30 41 30H33.5C32.9696 30 32.4609 29.7893 32.0858 29.4142C31.7107 29.0391 31.5 28.5304 31.5 28ZM19 30H26.5C27.0304 30 27.5391 29.7893 27.9142 29.4142C28.2893 29.0391 28.5 28.5304 28.5 28V20C28.5 19.4696 28.2893 18.9609 27.9142 18.5858C27.5391 18.2107 27.0304 18 26.5 18L19 18V17C19 15.9391 19.4214 14.9217 20.1716 14.1716C20.9217 13.4214 21.9391 13 23 13C23.2652 13 23.5196 12.8946 23.7071 12.7071C23.8946 12.5196 24 12.2652 24 12C24 11.7348 23.8946 11.4804 23.7071 11.2929C23.5196 11.1054 23.2652 11 23 11C21.4092 11.0017 19.884 11.6343 18.7592 12.7592C17.6343 13.884 17.0017 15.4092 17 17V28C17 28.5304 17.2107 29.0391 17.5858 29.4142C17.9609 29.7893 18.4696 30 19 30Z" fill="white"/>
</svg>
